<svg xmlns="http://www.w3.org/2000/svg" viewBox="0 0 1011 712" xmlns:xlink="http://www.w3.org/1999/xlink" height="712" width="1011"><defs/><g transform="translate(-51.00,-34.00)"><g transform="translate(428.76,34.00)" id="shape1"><text xml:space="preserve" style="fill:#191919;font-family:微软雅黑;font-size:36.00pt"><tspan x="36.5" y="89.0">正弦定理</tspan></text></g><g transform="translate(126.43,603.47)" id="group2"><g transform="translate(0.00,5.28)" id="shape3"><text xml:space="preserve" style="fill:#191919;font-family:微软雅黑;font-size:14.00pt"><tspan x="7.8" y="28.5">sin</tspan><tspan x="33.8" style="fill:#ff7e79">A</tspan><tspan x="46.8"> =</tspan></text></g><g transform="translate(69.07,0.00)" id="group4"><path fill="none" transform="translate(0.55,25.47)" id="shape5" stroke-width="1" stroke="#000000" d="M.0,.0L50.9,.0"/><g id="shape6"><text xml:space="preserve" style="fill:#ff7e79;font-family:微软雅黑;font-size:14.00pt"><tspan x="20.5" y="20.5">a</tspan></text></g><g transform="translate(0.00,26.00)" id="shape7"><text xml:space="preserve" style="fill:#bb720e;font-family:微软雅黑;font-size:14.00pt"><tspan x="14.5" y="20.5">2R</tspan></text></g></g></g><g transform="translate(481.93,603.47)" id="group8"><g transform="translate(0.00,5.28)" id="shape9"><text xml:space="preserve" style="fill:#191919;font-family:微软雅黑;font-size:14.00pt"><tspan x="8.3" y="28.5">sin</tspan><tspan x="34.3" style="fill:#467dfe">B</tspan><tspan x="46.3"> =</tspan></text></g><g transform="translate(69.07,0.00)" id="group10"><path fill="none" transform="translate(0.55,25.47)" id="shape11" stroke-width="1" stroke="#000000" d="M.0,.0L50.9,.0"/><g id="shape12"><text xml:space="preserve" style="fill:#467dfe;font-family:微软雅黑;font-size:14.00pt"><tspan x="20.0" y="20.5">b</tspan></text></g><g transform="translate(0.00,26.00)" id="shape13"><text xml:space="preserve" style="fill:#bb720e;font-family:微软雅黑;font-size:14.00pt"><tspan x="14.5" y="20.5">2R</tspan></text></g></g></g><g transform="translate(861.93,603.47)" id="group14"><g transform="translate(0.00,5.28)" id="shape15"><text xml:space="preserve" style="fill:#191919;font-family:微软雅黑;font-size:14.00pt"><tspan x="7.8" y="28.5">sin</tspan><tspan x="33.8" style="fill:#00b050">C</tspan><tspan x="46.8"> =</tspan></text></g><g transform="translate(69.07,0.00)" id="group16"><path fill="none" transform="translate(0.55,25.47)" id="shape17" stroke-width="1" stroke="#000000" d="M.0,.0L50.9,.0"/><g id="shape18"><text xml:space="preserve" style="fill:#00b050;font-family:微软雅黑;font-size:14.00pt"><tspan x="21.0" y="20.5">c</tspan></text></g><g transform="translate(0.00,26.00)" id="shape19"><text xml:space="preserve" style="fill:#bb720e;font-family:微软雅黑;font-size:14.00pt"><tspan x="14.5" y="20.5">2R</tspan></text></g></g></g><g transform="translate(779.76,220.17)" id="group20"><path fill-rule="nonzero" fill="#ffffff" transform="translate(0.00,73.63)" id="shape21" stroke-width="2.666670083999634" stroke="#101843" d="M.0,132.5C.0,59.3,59.3,.0,132.5,.0C205.7,.0,265.0,59.3,265.0,132.5C265.0,205.7,205.7,265.0,132.5,265.0C59.3,265.0,.0,205.7,.0,132.5z"/><path fill-rule="nonzero" fill="#ffffff" transform="translate(21.00,86.07)" id="shape22" stroke-width="2.666670083999634" stroke="#101843" d="M222.0,192.4L166.5,.0L.0,192.4L222.0,192.4z"/><g transform="translate(0.00,277.00)" id="shape23"><text xml:space="preserve" style="fill:#ff7e79;font-family:微软雅黑;font-size:11.00pt;font-weight:bold"><tspan x="10.0" y="19.5">A</tspan></text></g><g transform="translate(246.00,275.00)" id="shape24"><text xml:space="preserve" style="fill:#4155c6;font-family:微软雅黑;font-size:11.00pt;font-weight:bold"><tspan x="7.0" y="21.5">B</tspan></text></g><g transform="translate(182.00,55.00)" id="shape25"><text xml:space="preserve" style="fill:#00b050;font-family:微软雅黑;font-size:11.00pt;font-weight:bold"><tspan x="7.5" y="21.0">C</tspan></text></g><path fill="none" transform="matrix(0.84,-0.55,0.55,0.84,22.0,277.7)" id="shape26" stroke-width="2.666670083999634" stroke="#ff55ff" stroke-dasharray="11,5" d="M.0,.0L264.2,.0"/><g transform="translate(131.10,204.73)" id="shape27"><path fill-rule="nonzero" fill="#2d3c91" stroke-width="2.666670083999634" stroke="#2d3c91" d="M.0,1.4C.0,2.2,.6,2.8,1.4,2.8C2.2,2.8,2.8,2.2,2.8,1.4L2.8,1.4C2.8,.6,2.2,.0,1.4,.0C.6,.0,.0,.6,.0,1.4z"/><text xml:space="preserve" style="fill:#868686;font-family:微软雅黑;font-size:11.00pt"><tspan x="12.8" y="8.4">圆心</tspan></text></g><path fill="none" transform="matrix(0.00,-1.00,1.00,0.00,243.0,278.5)" id="shape28" stroke-width="2.666670083999634" stroke="#ff55ff" stroke-dasharray="11,5" d="M.0,.0L144.7,.0"/><g transform="translate(212.40,168.27)" id="shape29"><text xml:space="preserve" style="fill:#ff7e79;font-family:微软雅黑;font-size:11.00pt"><tspan x="11.3" y="20.0">a</tspan></text></g><g transform="translate(91.99,147.00)" id="shape30"><text xml:space="preserve" style="fill:#4155c6;font-family:微软雅黑;font-size:11.00pt"><tspan x="6.0" y="20.0">b</tspan></text></g><g transform="translate(120.50,275.00)" id="shape31"><text xml:space="preserve" style="fill:#00b050;font-family:微软雅黑;font-size:11.00pt"><tspan x="8.0" y="20.0">c</tspan></text></g><path fill-rule="nonzero" fill="#ff7e79" transform="matrix(1.00,-0.00,0.00,1.00,21.5,278.5)" id="shape32" stroke-width="2.666670083999634" stroke="#ff7e79" fill-opacity="0.28" d="M20.8,.0C20.8,-6.1,18.2,-11.9,13.5,-15.9L.0,.0L20.8,.0"/><path fill-rule="nonzero" fill="#467dfe" transform="matrix(-0.28,-0.96,0.96,-0.28,243.0,278.5)" id="shape33" stroke-width="2.666670083999634" stroke="#4155c6" fill-opacity="0.28" d="M17.6,.0C17.6,-7.8,12.5,-14.6,5.1,-16.9L.0,.0L17.6,.0"/><g transform="translate(81.00,0.00)" id="shape34"><text xml:space="preserve" style="fill:#bb720e;font-family:微软雅黑;font-size:16.00pt;font-weight:bold"><tspan x="25.5" y="30.0">半径: R</tspan></text></g><g transform="translate(88.65,229.06)" id="shape35"><text xml:space="preserve" style="fill:#bb720e;font-family:微软雅黑;font-size:11.00pt"><tspan x="7.7" y="20.0">R</tspan></text></g><g transform="translate(178.64,168.06)" id="shape36"><text xml:space="preserve" style="fill:#bb720e;font-family:微软雅黑;font-size:11.00pt"><tspan x="7.7" y="20.0">R</tspan></text></g><path fill-rule="nonzero" fill="#00b050" transform="matrix(-0.65,0.76,-0.76,-0.65,187.5,86.1)" id="shape37" stroke-width="2.666670083999634" stroke="#00b050" fill-opacity="0.28" d="M20.4,.0C20.4,-6.9,16.8,-13.4,11.0,-17.1L.0,.0L20.4,.0"/><path fill="none" transform="matrix(0.00,1.00,-1.00,0.00,233.2,267.8)" id="shape38" stroke-width="2.666670083999634" stroke="#ff55ff" d="M.0,.0L11.0,.0"/><path fill="none" transform="translate(232.24,268.83)" id="shape39" stroke-width="2.666670083999634" stroke="#ff55ff" d="M.0,.0L12.0,.0"/><g transform="translate(246.00,118.06)" id="shape40"><text xml:space="preserve" style="fill:#00b050;font-family:微软雅黑;font-size:11.00pt"><tspan x="7.3" y="20.0">C'</tspan></text></g><path fill-rule="nonzero" fill="#00b050" transform="matrix(-0.84,0.54,-0.54,-0.84,243.5,133.7)" id="shape41" stroke-width="2.666670083999634" stroke="#00b050" fill-opacity="0.28" d="M20.5,.0C20.5,-6.9,17.0,-13.4,11.2,-17.2L.0,.0L20.5,.0"/></g><g transform="translate(414.50,220.17)" id="group42"><path fill-rule="nonzero" fill="#ffffff" transform="translate(0.00,73.63)" id="shape43" stroke-width="2.666670083999634" stroke="#101843" d="M.0,132.5C.0,59.3,59.3,.0,132.5,.0C205.7,.0,265.0,59.3,265.0,132.5C265.0,205.7,205.7,265.0,132.5,265.0C59.3,265.0,.0,205.7,.0,132.5z"/><path fill-rule="nonzero" fill="#ffffff" transform="translate(21.00,86.07)" id="shape44" stroke-width="2.666670083999634" stroke="#101843" d="M222.0,192.4L166.5,.0L.0,192.4L222.0,192.4z"/><g transform="translate(0.00,277.00)" id="shape45"><text xml:space="preserve" style="fill:#ff7e79;font-family:微软雅黑;font-size:11.00pt;font-weight:bold"><tspan x="10.0" y="19.5">A</tspan></text></g><g transform="translate(246.00,275.00)" id="shape46"><text xml:space="preserve" style="fill:#4155c6;font-family:微软雅黑;font-size:11.00pt;font-weight:bold"><tspan x="7.0" y="21.5">B</tspan></text></g><g transform="translate(182.00,55.00)" id="shape47"><text xml:space="preserve" style="fill:#00b050;font-family:微软雅黑;font-size:11.00pt;font-weight:bold"><tspan x="7.5" y="21.0">C</tspan></text></g><path fill="none" transform="matrix(0.84,-0.55,0.55,0.84,22.0,277.7)" id="shape48" stroke-width="2.666670083999634" stroke="#ff55ff" stroke-dasharray="11,5" d="M.0,.0L264.2,.0"/><g transform="translate(131.10,204.73)" id="shape49"><path fill-rule="nonzero" fill="#2d3c91" stroke-width="2.666670083999634" stroke="#2d3c91" d="M.0,1.4C.0,2.2,.6,2.8,1.4,2.8C2.2,2.8,2.8,2.2,2.8,1.4L2.8,1.4C2.8,.6,2.2,.0,1.4,.0C.6,.0,.0,.6,.0,1.4z"/><text xml:space="preserve" style="fill:#868686;font-family:微软雅黑;font-size:11.00pt"><tspan x="12.8" y="8.4">圆心</tspan></text></g><path fill="none" transform="matrix(0.76,0.65,-0.65,0.76,187.5,86.1)" id="shape50" stroke-width="2.666670083999634" stroke="#ff55ff" stroke-dasharray="11,5" d="M.0,.0L73.5,.0"/><g transform="translate(212.40,168.27)" id="shape51"><text xml:space="preserve" style="fill:#ff7e79;font-family:微软雅黑;font-size:11.00pt"><tspan x="11.3" y="20.0">a</tspan></text></g><g transform="translate(91.99,147.00)" id="shape52"><text xml:space="preserve" style="fill:#4155c6;font-family:微软雅黑;font-size:11.00pt"><tspan x="6.0" y="20.0">b</tspan></text></g><g transform="translate(120.50,275.00)" id="shape53"><text xml:space="preserve" style="fill:#00b050;font-family:微软雅黑;font-size:11.00pt"><tspan x="8.0" y="20.0">c</tspan></text></g><path fill-rule="nonzero" fill="#ff7e79" transform="matrix(1.00,-0.00,0.00,1.00,21.5,278.5)" id="shape54" stroke-width="2.666670083999634" stroke="#ff7e79" fill-opacity="0.28" d="M20.8,.0C20.8,-6.1,18.2,-11.9,13.5,-15.9L.0,.0L20.8,.0"/><path fill-rule="nonzero" fill="#467dfe" transform="matrix(-0.28,-0.96,0.96,-0.28,243.0,278.5)" id="shape55" stroke-width="2.666670083999634" stroke="#4155c6" fill-opacity="0.28" d="M17.6,.0C17.6,-7.8,12.5,-14.6,5.1,-16.9L.0,.0L17.6,.0"/><g transform="translate(81.00,0.00)" id="shape56"><text xml:space="preserve" style="fill:#bb720e;font-family:微软雅黑;font-size:16.00pt;font-weight:bold"><tspan x="25.5" y="30.0">半径: R</tspan></text></g><g transform="translate(88.65,229.06)" id="shape57"><text xml:space="preserve" style="fill:#bb720e;font-family:微软雅黑;font-size:11.00pt"><tspan x="7.7" y="20.0">R</tspan></text></g><g transform="translate(178.63,168.06)" id="shape58"><text xml:space="preserve" style="fill:#bb720e;font-family:微软雅黑;font-size:11.00pt"><tspan x="7.7" y="20.0">R</tspan></text></g><path fill-rule="nonzero" fill="#00b050" transform="matrix(-0.65,0.76,-0.76,-0.65,187.5,86.1)" id="shape59" stroke-width="2.666670083999634" stroke="#00b050" fill-opacity="0.28" d="M20.4,.0C20.4,-6.9,16.8,-13.4,11.0,-17.1L.0,.0L20.4,.0"/><path fill="none" transform="matrix(0.71,0.71,-0.71,0.71,181.5,92.7)" id="shape60" stroke-width="2.666670083999634" stroke="#ff55ff" d="M.0,.0L9.9,.0"/><path fill="none" transform="matrix(0.71,-0.71,0.71,0.71,188.5,99.7)" id="shape61" stroke-width="2.666670083999634" stroke="#ff55ff" d="M.0,.0L9.9,.0"/><g transform="translate(246.00,118.06)" id="shape62"><text xml:space="preserve" style="fill:#467dfe;font-family:微软雅黑;font-size:11.00pt"><tspan x="7.8" y="20.0">B'</tspan></text></g><path fill-rule="nonzero" fill="#467dfe" transform="matrix(-0.77,-0.64,0.64,-0.77,243.6,133.9)" id="shape63" stroke-width="2.666670083999634" stroke="#467dfe" fill-opacity="0.28" d="M15.8,.0C15.8,-6.9,11.3,-13.0,4.8,-15.1L.0,.0L15.8,.0"/></g><g transform="translate(52.00,220.17)" id="group64"><path fill-rule="nonzero" fill="#ffffff" transform="translate(7.00,73.63)" id="shape65" stroke-width="2.666666746139526" stroke="#101843" d="M.0,132.5C.0,59.3,59.3,.0,132.5,.0C205.7,.0,265.0,59.3,265.0,132.5C265.0,205.7,205.7,265.0,132.5,265.0C59.3,265.0,.0,205.7,.0,132.5z"/><path fill-rule="nonzero" fill="#ffffff" transform="translate(28.00,86.07)" id="shape66" stroke-width="2.666666746139526" stroke="#101843" d="M222.0,192.4L166.5,.0L.0,192.4L222.0,192.4z"/><g transform="translate(7.00,277.00)" id="shape67"><text xml:space="preserve" style="fill:#ff7e79;font-family:微软雅黑;font-size:11.00pt;font-weight:bold"><tspan x="10.0" y="19.5">A</tspan></text></g><g transform="translate(253.00,275.00)" id="shape68"><text xml:space="preserve" style="fill:#4155c6;font-family:微软雅黑;font-size:11.00pt;font-weight:bold"><tspan x="7.0" y="21.5">B</tspan></text></g><g transform="translate(189.00,55.00)" id="shape69"><text xml:space="preserve" style="fill:#00b050;font-family:微软雅黑;font-size:11.00pt;font-weight:bold"><tspan x="7.5" y="21.0">C</tspan></text></g><path fill="none" transform="matrix(-0.84,-0.55,0.55,-0.84,250.0,278.5)" id="shape70" stroke-width="2.666666746139526" stroke="#ff55ff" stroke-dasharray="11,5" d="M.0,.0L264.6,.0"/><g transform="translate(138.10,204.73)" id="shape71"><path fill-rule="nonzero" fill="#2d3c91" stroke-width="2.666666746139526" stroke="#2d3c91" d="M.0,1.4C.0,2.2,.6,2.8,1.4,2.8C2.2,2.8,2.8,2.2,2.8,1.4L2.8,1.4C2.8,.6,2.2,.0,1.4,.0C.6,.0,.0,.6,.0,1.4z"/><text xml:space="preserve" style="fill:#868686;font-family:微软雅黑;font-size:11.00pt"><tspan x="12.8" y="8.4">圆心</tspan></text></g><path fill="none" transform="matrix(-0.96,0.27,-0.27,-0.96,194.5,86.1)" id="shape72" stroke-width="2.666666746139526" stroke="#ff55ff" stroke-dasharray="11,5" d="M.0,.0L172.0,.0"/><g transform="translate(219.40,168.27)" id="shape73"><text xml:space="preserve" style="fill:#ff7e79;font-family:微软雅黑;font-size:11.00pt"><tspan x="11.3" y="20.0">a</tspan></text></g><g transform="translate(98.99,147.00)" id="shape74"><text xml:space="preserve" style="fill:#4155c6;font-family:微软雅黑;font-size:11.00pt"><tspan x="6.0" y="20.0">b</tspan></text></g><g transform="translate(127.50,275.00)" id="shape75"><text xml:space="preserve" style="fill:#00b050;font-family:微软雅黑;font-size:11.00pt"><tspan x="8.0" y="20.0">c</tspan></text></g><path fill-rule="nonzero" fill="#ff7e79" transform="matrix(1.00,-0.00,0.00,1.00,28.5,278.5)" id="shape76" stroke-width="2.666666746139526" stroke="#ff7e79" fill-opacity="0.28" d="M20.8,.0C20.8,-6.1,18.2,-11.9,13.5,-15.9L.0,.0L20.8,.0"/><path fill-rule="nonzero" fill="#467dfe" transform="matrix(-0.28,-0.96,0.96,-0.28,250.0,278.5)" id="shape77" stroke-width="2.666670083999634" stroke="#4155c6" fill-opacity="0.28" d="M17.6,.0C17.6,-7.9,12.4,-14.8,4.8,-16.9L.0,.0L17.6,.0"/><g transform="translate(88.00,-0.00)" id="shape78"><text xml:space="preserve" style="fill:#bb720e;font-family:微软雅黑;font-size:16.00pt;font-weight:bold"><tspan x="25.5" y="30.0">半径: R</tspan></text></g><g transform="translate(66.32,162.00)" id="shape79"><text xml:space="preserve" style="fill:#bb720e;font-family:微软雅黑;font-size:11.00pt"><tspan x="7.7" y="20.0">R</tspan></text></g><g transform="translate(163.63,227.00)" id="shape80"><text xml:space="preserve" style="fill:#bb720e;font-family:微软雅黑;font-size:11.00pt"><tspan x="7.7" y="20.0">R</tspan></text></g><path fill-rule="nonzero" fill="#00b050" transform="matrix(-0.65,0.76,-0.76,-0.65,194.5,86.1)" id="shape81" stroke-width="2.666670083999634" stroke="#00b050" fill-opacity="0.28" d="M20.4,.0C20.4,-6.9,16.8,-13.4,11.0,-17.1L.0,.0L20.4,.0"/><path fill="none" transform="matrix(0.26,0.96,-0.96,0.26,184.0,89.0)" id="shape82" stroke-width="2.666666746139526" stroke="#ff55ff" d="M.0,.0L11.4,.0"/><path fill="none" transform="matrix(0.97,-0.24,0.24,0.97,186.0,99.0)" id="shape83" stroke-width="2.666666746139526" stroke="#ff55ff" d="M.0,.0L12.4,.0"/><g transform="translate(-0.00,118.00)" id="shape84"><text xml:space="preserve" style="fill:#ff7e79;font-family:微软雅黑;font-size:11.00pt"><tspan x="6.8" y="20.0">A'</tspan></text></g><path fill-rule="nonzero" fill="#ff7e79" transform="matrix(0.84,0.54,-0.54,0.84,29.0,133.0)" id="shape85" stroke-width="2.666670083999634" stroke="#ff7e79" fill-opacity="0.28" d="M20.3,.0C20.3,-5.8,17.8,-11.3,13.5,-15.1L.0,.0L20.3,.0"/></g><g transform="translate(75.00,140.00)" id="shape86"><text xml:space="preserve" style="fill:#191919;font-family:微软雅黑;font-size:11.00pt"><tspan x="63.5" y="43.0">根据圆周角定义，在同一个圆中，两个圆周角对应的弧相等（相同），角度也相同，即可得出： ∠A = ∠A’   ∠B = ∠B'  ∠C = ∠C'</tspan></text></g><g transform="translate(369.96,692.14)" id="group87"><g transform="translate(0.00,0.00)" id="group88"><path fill="none" transform="translate(0.55,25.47)" id="shape89" stroke-width="1" stroke="#000000" d="M.0,.0L50.9,.0"/><g id="shape90"><text xml:space="preserve" style="fill:#191919;font-family:微软雅黑;font-size:12.00pt"><tspan x="21.5" y="19.5">a</tspan></text></g><g transform="translate(0.00,26.00)" id="shape91"><text xml:space="preserve" style="fill:#191919;font-family:微软雅黑;font-size:12.00pt"><tspan x="10.0" y="19.5">sinA</tspan></text></g></g><g transform="translate(101.03,0.26)" id="group92"><path fill="none" transform="translate(0.55,25.47)" id="shape93" stroke-width="1" stroke="#000000" d="M.0,.0L50.9,.0"/><g id="shape94"><text xml:space="preserve" style="fill:#191919;font-family:微软雅黑;font-size:12.00pt"><tspan x="21.0" y="19.5">b</tspan></text></g><g transform="translate(0.00,26.00)" id="shape95"><text xml:space="preserve" style="fill:#191919;font-family:微软雅黑;font-size:12.00pt"><tspan x="10.5" y="19.5">sinB</tspan></text></g></g><g transform="translate(202.07,0.00)" id="group96"><path fill="none" transform="translate(0.55,25.47)" id="shape97" stroke-width="1" stroke="#000000" d="M.0,.0L50.9,.0"/><g id="shape98"><text xml:space="preserve" style="fill:#191919;font-family:微软雅黑;font-size:12.00pt"><tspan x="22.0" y="19.5">c</tspan></text></g><g transform="translate(0.00,26.00)" id="shape99"><text xml:space="preserve" style="fill:#191919;font-family:微软雅黑;font-size:12.00pt"><tspan x="10.0" y="19.5">sinC</tspan></text></g></g><g transform="translate(303.10,12.26)" id="shape100"><text xml:space="preserve" style="fill:#191919;font-family:微软雅黑;font-size:12.00pt"><tspan x="20.8" y="20.5">2R</tspan></text></g><g transform="translate(272.79,8.26)" id="shape101"><text xml:space="preserve" style="fill:#191919;font-family:Symbol;font-size:12.00pt"><tspan x="10.5" y="21.0">=</tspan></text></g><g transform="translate(163.36,8.26)" id="shape102"><text xml:space="preserve" style="fill:#191919;font-family:Symbol;font-size:12.00pt"><tspan x="10.5" y="21.0">=</tspan></text></g><g transform="translate(54.70,9.14)" id="shape103"><text xml:space="preserve" style="fill:#191919;font-family:Symbol;font-size:12.00pt"><tspan x="10.5" y="21.0">=</tspan></text></g></g></g></svg>
