<svg viewBox="0 0 656 662" height="662" xmlns="http://www.w3.org/2000/svg" xmlns:xlink="http://www.w3.org/1999/xlink" width="656"><defs/><g transform="translate(-67.13,-52.00)"><g id="group1" transform="matrix(0.64,0.77,-0.77,0.64,213.5,277.9)"><path stroke-width="2.666670083999634" fill="none" id="shape2" stroke="#4155c6" d="M172.4,153.2L129.3,.0L.0,153.2L172.4,153.2z"/><path stroke-width="2.666670083999634" fill="none" id="shape3" transform="matrix(0.45,0.89,-0.89,0.45,10.5,140.8)" stroke="#4155c6" d="M.0,.0C3.5,-4.0,10.5,-4.0,13.9,.0"/><g id="shape4" transform="translate(20.53,125.85)"><text xml:space="preserve" style="fill:#4155c6;font-family:微软雅黑;font-size:11.00pt;font-weight:bold"><tspan x="4.1" y="19.5">θ</tspan></text></g><g id="shape5" transform="translate(114.95,22.09)"><text xml:space="preserve" style="fill:#4155c6;font-family:微软雅黑;font-size:11.00pt"><tspan x="2.6" y="16.3">O</tspan></text></g><g id="shape6" transform="translate(138.66,116.36)"><text xml:space="preserve" style="fill:#4155c6;font-family:微软雅黑;font-size:11.00pt"><tspan x="9.8" y="24.4">χ</tspan></text></g></g><g id="group7" transform="matrix(0.25,0.97,0.97,-0.25,188.3,408.9)"><path stroke-width="2.666670083999634" fill="none" id="shape8" transform="matrix(1.00,0.02,-0.02,1.00,-0.5,-7.0)" stroke="#ff7e79" d="M137.9,122.5L103.4,.0L.0,122.5L137.9,122.5z"/><path stroke-width="2.666670083999634" fill="none" id="shape9" transform="matrix(0.43,0.90,-0.90,0.43,5.9,105.7)" stroke="#ff7e79" d="M.0,.0C2.8,-4.0,8.4,-4.0,11.1,.0"/><g id="shape10" transform="translate(15.39,92.64)"><text transform="matrix(-1.00,0.00,0.00,1.00,14.6,0.0)" xml:space="preserve" style="fill:#ff7e79;font-family:微软雅黑;font-size:11.00pt"><tspan x="2.3" y="16.9">θ</tspan></text></g><g id="shape11" transform="translate(90.88,9.67)"><text transform="matrix(-1.00,0.00,0.00,1.00,13.8,0.0)" xml:space="preserve" style="fill:#ff7e79;font-family:微软雅黑;font-size:11.00pt"><tspan x="0.9" y="14.2">O</tspan></text></g><g id="shape12" transform="translate(109.84,85.05)"><text transform="matrix(-1.00,0.00,0.00,1.00,22.8,0.0)" xml:space="preserve" style="fill:#ff7e79;font-family:微软雅黑;font-size:11.00pt"><tspan x="6.9" y="20.7">χ</tspan></text></g></g><path stroke-width="2.666670083999634" fill="none" id="shape13" transform="matrix(0.00,1.00,-1.00,0.00,96.0,377.0)" stroke="#4155c6" stroke-dasharray="6,4" d="M-0.0,-0.0L135.0,-0.0"/><path stroke-width="2.666670083999634" fill="none" id="shape14" transform="matrix(-1.00,0.00,0.00,-1.00,208.0,510.0)" stroke="#4155c6" stroke-dasharray="6,4" d="M-0.0,-0.0L115.0,-0.0"/><path stroke-width="2.666670083999634" fill="none" id="shape15" transform="matrix(-1.00,0.00,0.00,-1.00,452.0,510.0)" stroke="#3ca057" stroke-dasharray="6,4" d="M-0.0,-0.0L115.0,-0.0"/><path stroke-width="2.666670083999634" fill="none" id="shape16" transform="matrix(0.00,1.00,-1.00,0.00,452.0,377.0)" stroke="#3ca057" stroke-dasharray="6,4" d="M-0.0,-0.0L135.0,-0.0"/><g id="shape17" transform="translate(267.00,163.62)"><path fill="#ffecd1" fill-rule="nonzero" d="M.0,.0L144.2,.0L144.2,115.4L.0,115.4L.0,.0z"/><text xml:space="preserve" style="fill:#191919;font-family:微软雅黑;font-size:11.00pt"><tspan x="4.6" y="43.7">三边均乘以 a，b，c </tspan><tspan x="5.6" y="63.7">得到如下3个三角形, </tspan><tspan x="19.6" y="83.7">并按照下图摆放</tspan></text></g><g id="shape18" transform="translate(147.60,340.74)"><text xml:space="preserve" style="fill:#191919;font-family:微软雅黑;font-size:14.00pt"><tspan x="51.0" y="28.0">a</tspan><tspan textLength="7.0" x="62.0" y="19.9" style="font-size:9.10pt">2</tspan></text></g><g id="shape19" transform="translate(137.87,425.71)"><text xml:space="preserve" style="fill:#191919;font-family:微软雅黑;font-size:14.00pt;font-weight:bold"><tspan x="5.1" y="28.0">ab</tspan></text></g><g id="shape20" transform="translate(233.35,426.71)"><text xml:space="preserve" style="fill:#191919;font-family:微软雅黑;font-size:14.00pt;font-weight:bold"><tspan x="6.6" y="28.0">ac</tspan></text></g><g id="shape21" transform="translate(214.71,508.00)"><text xml:space="preserve" style="fill:#191919;font-family:微软雅黑;font-size:14.00pt"><tspan x="51.5" y="28.0">c</tspan><tspan textLength="7.0" x="61.5" y="19.9" style="font-size:9.10pt">2</tspan></text></g><g id="shape22" transform="translate(353.54,340.74)"><text xml:space="preserve" style="fill:#191919;font-family:微软雅黑;font-size:14.00pt"><tspan x="7.2" y="28.0">b</tspan><tspan textLength="7.0" x="19.2" y="19.9" style="font-size:9.10pt">2</tspan></text></g><g id="group23" transform="translate(96.15,144.25)"><g id="shape24" transform="translate(104.06,37.25)"><text xml:space="preserve" style="fill:#191919;font-family:微软雅黑;font-size:14.00pt"><tspan x="7.8" y="20.8">c</tspan></text></g><g id="group25"><g id="shape26" transform="translate(10.50,25.25)"><text xml:space="preserve" style="fill:#191919;font-family:微软雅黑;font-size:14.00pt"><tspan x="19.0" y="25.3">a</tspan></text></g><g id="shape27" transform="translate(47.50,99.25)"><text xml:space="preserve" style="fill:#191919;font-family:微软雅黑;font-size:14.00pt"><tspan x="18.5" y="25.3">b</tspan></text></g><g id="group28"><path fill="#ffffff" stroke-width="1" fill-rule="nonzero" id="shape29" stroke="#101843" d="M120.0,104.0L90.0,.0L.0,104.0L120.0,104.0z"/><path stroke-width="1" fill="none" id="shape30" transform="matrix(0.46,0.89,-0.89,0.46,7.3,95.6)" stroke="#101843" d="M.0,.0C2.4,-4.0,7.1,-4.0,9.5,.0"/><g id="shape31" transform="translate(14.29,85.44)"><text xml:space="preserve" style="fill:#191919;font-family:微软雅黑;font-size:11.00pt"><tspan x="1.4" y="15.3">θ</tspan></text></g><g id="shape32" transform="translate(80.00,15.00)"><text xml:space="preserve" style="fill:#191919;font-family:微软雅黑;font-size:11.00pt"><tspan x="0.0" y="13.0">O</tspan></text></g><g id="shape33" transform="translate(96.50,79.00)"><text xml:space="preserve" style="fill:#191919;font-family:微软雅黑;font-size:11.00pt"><tspan x="5.4" y="18.5">χ</tspan></text></g></g></g></g><path stroke-width="2.666670083999634" fill="none" id="shape34" transform="matrix(0.29,-0.96,0.96,0.29,197.0,510.0)" stroke="#4155c6" d="M.0,.0C1.6,-3.3,6.7,-3.3,10.3,.0"/><g id="group35" transform="matrix(-1.00,-0.00,0.00,-1.00,451.0,510.0)"><path stroke-width="2.666670083999634" fill="none" id="shape36" stroke="#3ca057" d="M149.3,132.6L112.0,.0L.0,132.6L149.3,132.6z"/><path stroke-width="2.666670083999634" fill="none" id="shape37" transform="matrix(0.45,0.89,-0.89,0.45,9.1,121.9)" stroke="#3ca057" d="M.0,.0C3.0,-4.0,9.1,-4.0,12.0,.0"/><g id="shape38" transform="translate(17.78,108.97)"><text transform="matrix(-1.00,0.00,0.00,-1.00,15.8,23.7)" xml:space="preserve" style="fill:#3ca057;font-family:微软雅黑;font-size:11.00pt"><tspan x="2.9" y="17.8">θ</tspan></text></g><g id="shape39" transform="translate(99.52,19.13)"><text transform="matrix(-1.00,0.00,0.00,-1.00,14.9,17.9)" xml:space="preserve" style="fill:#3ca057;font-family:微软雅黑;font-size:11.00pt"><tspan x="1.5" y="14.9">O</tspan></text></g><g id="shape40" transform="translate(120.05,100.75)"><text transform="matrix(-1.00,0.00,0.00,-1.00,24.7,31.9)" xml:space="preserve" style="fill:#3ca057;font-family:微软雅黑;font-size:11.00pt"><tspan x="7.8" y="21.9">χ</tspan></text></g></g><path stroke-width="2.666670083999634" fill="none" id="shape41" transform="matrix(-0.45,-0.89,0.89,-0.45,351.0,510.0)" stroke="#3ca057" d="M.0,.0C3.0,4.3,8.1,4.3,10.2,.0"/><g id="shape42" transform="translate(258.00,426.71)"><text xml:space="preserve" style="fill:#191919;font-family:微软雅黑;font-size:14.00pt;font-weight:bold"><tspan x="48.5" y="28.0">bc</tspan></text></g><g id="shape43" transform="translate(377.75,425.71)"><text xml:space="preserve" style="fill:#191919;font-family:微软雅黑;font-size:14.00pt;font-weight:bold"><tspan x="5.1" y="28.0">ab</tspan></text></g><g id="shape44" transform="translate(174.00,483.26)"><text xml:space="preserve" style="fill:#4155c6;font-family:微软雅黑;font-size:11.00pt;font-weight:bold"><tspan x="4.1" y="19.5">θ</tspan></text></g><g id="shape45" transform="translate(353.54,483.26)"><text xml:space="preserve" style="fill:#3ca057;font-family:微软雅黑;font-size:11.00pt;font-weight:bold"><tspan x="4.1" y="19.5">θ</tspan></text></g><g id="shape46" transform="translate(94.00,567.00)"><path stroke-width="1" fill="none" stroke="#696969" d="M.0,-38.0L.0,-12.0L.0,-38.0zM114.0,-38.0L114.0,-12.0L114.0,-38.0zM106.2,-28.0L7.8,-28.0"/><path stroke-width="1" fill="#696969" stroke-linecap="round" stroke="#696969" d="M114.0,-28.0L106.2,-29.9L106.2,-26.1L114.0,-28.0"/><path stroke-width="1" fill="#696969" stroke-linecap="round" stroke="#696969" d="M.0,-28.0L7.8,-26.1L7.8,-29.9L.0,-28.0"/><rect fill="#ffffff" x="39.0" height="16.0" y="-51.0" width="38.0"/><text xml:space="preserve" style="fill:#303030;font-family:微软雅黑;font-size:8.00pt"><tspan x="39.0" y="-39.0">abcosθ</tspan></text></g><g id="shape47" transform="translate(340.00,565.00)"><path stroke-width="1" fill="none" stroke="#696969" d="M.0,-35.0L.0,-12.0L.0,-35.0zM114.0,-35.0L114.0,-12.0L114.0,-35.0zM106.2,-25.0L7.8,-25.0"/><path stroke-width="1" fill="#696969" stroke-linecap="round" stroke="#696969" d="M114.0,-25.0L106.2,-26.9L106.2,-23.1L114.0,-25.0"/><path stroke-width="1" fill="#696969" stroke-linecap="round" stroke="#696969" d="M.0,-25.0L7.8,-23.1L7.8,-26.9L.0,-25.0"/><rect fill="#ffffff" x="39.0" height="16.0" y="-48.0" width="38.0"/><text xml:space="preserve" style="fill:#303030;font-family:微软雅黑;font-size:8.00pt"><tspan x="39.0" y="-36.0">abcosθ</tspan></text></g><g id="shape48" transform="translate(82.13,591.00)"><text xml:space="preserve" style="fill:#191919;font-family:微软雅黑;font-size:36.00pt;font-weight:bold"><tspan x="19.9" y="80.6" style="fill:#ff7e79">c</tspan><tspan textLength="20.0" x="44.9" y="59.8" style="fill:#ff7e79;font-size:23.40pt">2</tspan><tspan textLength="37.0" x="64.9" y="80.6">=</tspan><tspan x="101.9" style="fill:#4155c6">a</tspan><tspan textLength="20.0" x="129.9" y="59.8" style="fill:#4155c6;font-size:23.40pt">2</tspan><tspan textLength="37.0" x="149.9" y="80.6">+</tspan><tspan x="186.9" style="fill:#3ca057">b</tspan><tspan textLength="20.0" x="218.9" y="59.8" style="fill:#3ca057;font-size:23.40pt">2</tspan><tspan textLength="231.0" x="238.9" y="80.6">-2abCosθ</tspan></text></g><g id="shape49" transform="translate(147.60,52.00)"><text xml:space="preserve" style="fill:#191919;font-family:微软雅黑;font-size:24.00pt"><tspan x="68.9" y="50.5">余弦定理推导过程(日本教科书)</tspan></text></g><g id="shape50" transform="translate(473.00,163.63)"><text xml:space="preserve" style="fill:#4155c6;font-family:微软雅黑;font-size:11.00pt"><tspan x="13.0" y="20.0">🔺  周长为：a</tspan><tspan textLength="5.0" x="110.0" y="13.5" style="font-size:7.15pt">2</tspan><tspan textLength="72.0" x="115.0" y="20.0"> + ab + ac</tspan></text></g><g id="shape51" transform="translate(473.00,203.05)"><text xml:space="preserve" style="fill:#ff7e79;font-family:微软雅黑;font-size:11.00pt"><tspan x="13.0" y="20.0">🔺  周长为：c</tspan><tspan textLength="5.0" x="110.0" y="13.5" style="font-size:7.15pt">2</tspan><tspan textLength="72.0" x="115.0" y="20.0"> + bc + ac</tspan></text></g><g id="shape52" transform="translate(473.00,240.05)"><text xml:space="preserve" style="fill:#3ca057;font-family:微软雅黑;font-size:11.00pt"><tspan x="11.0" y="20.0">🔺  周长为：b</tspan><tspan textLength="5.0" x="110.0" y="13.5" style="font-size:7.15pt">2</tspan><tspan textLength="74.0" x="115.0" y="20.0"> + ab + bc</tspan></text></g></g></svg>
